<?xml version="1.0" encoding="UTF-8"?>
<!DOCTYPE svg PUBLIC "-//W3C//DTD SVG 1.1//EN" "http://www.w3.org/Graphics/SVG/1.1/DTD/svg11.dtd">
<!-- Creator: CorelDRAW -->
<svg xmlns="http://www.w3.org/2000/svg" xml:space="preserve" width="210mm" height="150mm" version="1.1" style="shape-rendering:geometricPrecision; text-rendering:geometricPrecision; image-rendering:optimizeQuality; fill-rule:evenodd; clip-rule:evenodd"
viewBox="0 0 21000 15000"
 xmlns:xlink="http://www.w3.org/1999/xlink"
 xmlns:xodm="http://www.corel.com/coreldraw/odm/2003">
 <defs>
  <style type="text/css">
   <![CDATA[
    .fil1 {fill:#018ACB;fill-rule:nonzero}
    .fil3 {fill:#028ACA;fill-rule:nonzero}
    .fil4 {fill:#2B2A29;fill-rule:nonzero}
    .fil2 {fill:#2D2C2B;fill-rule:nonzero}
    .fil5 {fill:#F9F8F8;fill-rule:nonzero}
    .fil0 {fill:#FDFDFD;fill-rule:nonzero}
   ]]>
  </style>
 </defs>
 <g id="Capa_x0020_1">
  <metadata id="CorelCorpID_0Corel-Layer"/>
  <g id="_2445411303664">
   <path class="fil0" d="M9394.84 4695.95c51.52,25.76 90.2,56.1 133.12,93.43 15.46,13.27 30.93,26.54 46.41,39.79 7.68,6.59 15.35,13.17 23.27,19.96 30.95,26.32 62.46,51.93 94.03,77.5 64.35,52.36 127.29,106.2 190.12,160.35 46.63,40.1 93.69,79.53 141.44,118.29 55.93,45.4 110.8,91.88 165.36,138.91 66.36,57.17 133.51,113.17 201.49,168.41 77.76,63.72 154.07,129.18 230.66,194.28 73.49,62.43 147.04,124.68 221.88,185.49 64.34,52.36 127.28,106.2 190.11,160.35 46.63,40.1 93.69,79.53 141.44,118.29 55.93,45.4 110.8,91.88 165.37,138.91 66.35,57.17 133.5,113.17 201.48,168.41 77.76,63.72 154.07,129.18 230.66,194.28 73.48,62.43 147.04,124.68 221.87,185.49 64.35,52.36 127.29,106.2 190.12,160.35 46.63,40.1 93.69,79.53 141.44,118.29 55.93,45.4 110.8,91.88 165.36,138.91 68.19,58.75 137.11,116.36 206.97,173.11 37.12,30.17 73.87,60.75 110.53,91.47 -35.36,46.86 -71.36,83.58 -117.4,119.89 -58.87,47.18 -116.55,95.39 -173.64,144.7 -66,56.89 -132.85,112.51 -200.5,167.43 -43.93,36.2 -87.11,73.22 -130.23,110.38 -66,56.88 -132.85,112.51 -200.5,167.43 -43.93,36.21 -87.1,73.22 -130.23,110.38 -66.35,57.18 -133.5,113.18 -201.48,168.42 -70.3,57.6 -139.37,116.68 -208.62,175.54 -80.82,68.69 -161.6,137.34 -243.91,204.23 -64.35,52.35 -127.28,106.2 -190.12,160.34 -58.07,49.94 -117.11,98.55 -176.58,146.82 -43.93,36.21 -87.1,73.22 -130.22,110.38 -66.36,57.17 -133.51,113.17 -201.49,168.42 -70.3,57.6 -139.37,116.68 -208.62,175.54 -80.82,68.69 -161.6,137.34 -243.92,204.23 -64.34,52.35 -127.28,106.2 -190.11,160.34 -57.95,49.84 -116.86,98.35 -176.22,146.51 -54.07,44.58 -107.12,90.32 -160.09,136.19 -108.35,93.56 -108.35,93.56 -142.47,93.56 0,-589.36 0,-1178.72 0,-1785.93 -1929.61,0 -3859.22,0 -5847.3,0 0,-707.24 0,-1414.47 0,-2143.13 1933.98,0 3867.95,0 5860.52,0 0,-589.36 0,-1178.72 0,-1785.94z"/>
   <path class="fil1" d="M15678.7 3187.82c16.07,2.8 32.13,5.59 48.68,8.47 698.23,124.06 1395.45,403.15 1975.39,811.74 16.53,11.31 33.06,22.61 49.61,33.9 17.09,11.84 34.18,23.69 51.26,35.55 8.01,5.47 16.02,10.93 24.27,16.55 40.78,28.76 69.62,51.35 86.52,99.21 -8.51,6.91 -17.02,13.81 -25.78,20.93 -76.62,62.4 -152.44,125.6 -227.73,189.59 -44.9,38.1 -90.2,75.64 -135.92,112.77 -64.34,52.35 -127.28,106.2 -190.12,160.35 -58.07,49.94 -117.11,98.54 -176.58,146.81 -43.93,36.21 -87.1,73.22 -130.22,110.38 -66.36,57.18 -133.51,113.18 -201.49,168.42 -70.3,57.6 -139.36,116.68 -208.62,175.54 -92.8,78.88 -185.95,157.17 -280.39,234.1 -70.39,57.84 -139.67,117 -209.09,176.01 -80.81,68.68 -161.59,137.33 -243.91,204.22 -56.17,45.71 -111.33,92.47 -166.19,139.73 -66.32,57.14 -133.42,113.13 -201.38,168.31 -41.29,33.86 -82.05,68.31 -122.73,102.89 -52.21,44.38 -104.73,88.27 -157.93,131.47 -56.17,45.71 -111.33,92.46 -166.19,139.73 -66.79,57.53 -134.14,114.21 -202.78,169.55 -25.27,20.65 -50.17,41.76 -74.82,63.15 -12.9,11.07 -25.79,22.13 -39.07,33.54 -11.58,10.13 -23.16,20.26 -35.09,30.69 -31.88,20.57 -31.88,20.57 -57.68,17.35 -29.42,-10.86 -46.36,-22.97 -69.65,-43.81 -11.85,-10.45 -11.85,-10.45 -23.94,-21.12 -12.53,-11.29 -12.53,-11.29 -25.31,-22.8 -17.82,-15.75 -35.65,-31.5 -53.48,-47.23 -8.93,-7.92 -17.85,-15.84 -27.05,-23.99 -38.05,-33.55 -76.66,-66.4 -115.43,-99.11 -7.06,-5.96 -14.12,-11.93 -21.39,-18.08 -44.05,-37.13 -88.52,-73.72 -133.22,-110.07 -64.34,-52.36 -127.28,-106.21 -190.12,-160.35 -46.62,-40.1 -93.69,-79.53 -141.44,-118.29 -64.11,-52.04 -126.75,-105.63 -189.29,-159.53 -46.63,-40.1 -93.69,-79.52 -141.44,-118.29 -64.1,-52.04 -126.74,-105.62 -189.29,-159.52 -46.62,-40.1 -93.68,-79.53 -141.44,-118.29 -71.44,-58.04 -141.21,-117.9 -210.99,-177.92 -96.06,-82.62 -192.57,-164.66 -290.89,-244.58 -64.34,-52.36 -127.28,-106.21 -190.11,-160.35 -46.63,-40.1 -93.69,-79.53 -141.44,-118.29 -64.11,-52.04 -126.75,-105.63 -189.29,-159.53 -46.63,-40.1 -93.69,-79.52 -141.44,-118.29 -64.11,-52.04 -126.75,-105.62 -189.29,-159.52 -57.92,-49.8 -116.78,-98.3 -176.12,-146.4 -54.93,-45.32 -108.78,-91.89 -162.52,-138.62 -40.96,-36.2 -40.96,-36.2 -87.23,-64.78 0,-8.73 0,-17.46 0,-26.46 31.74,-24.95 63.55,-48.2 96.74,-71.1 10.09,-7.03 20.18,-14.05 30.57,-21.29 388.7,-268.31 807.37,-494.37 1254.05,-649.73 30.15,-10.54 60.09,-21.48 90.02,-32.61 885.3,-321.33 1868.78,-353.67 2788.41,-191z"/>
   <path class="fil1" d="M14679.8 8135.12c42.57,17.51 67.89,41.18 100.97,73.18 12.88,12.19 25.78,24.35 38.71,36.48 9.76,9.19 9.76,9.19 19.72,18.57 28.84,26.47 59.11,51.01 89.57,75.59 56.84,45.88 112.54,92.85 167.85,140.55 54.56,47.03 109.43,93.51 165.36,138.91 71.45,58.04 141.22,117.9 211,177.92 96.06,82.62 192.57,164.67 290.89,244.59 71.71,58.39 141.82,118.54 211.92,178.85 65.47,56.31 131.47,111.98 197.45,167.68 21.79,18.42 43.53,36.88 65.27,55.36 66.23,56.23 132.61,112.17 200.04,166.96 71.72,58.39 141.83,118.54 211.93,178.85 65.46,56.31 131.47,111.98 197.45,167.69 21.78,18.42 43.53,36.88 65.27,55.35 66.23,56.24 132.61,112.17 200.04,166.97 71.68,58.36 141.75,118.47 211.82,178.74 95.77,82.37 191.95,164.2 290.06,243.76 61.55,50.25 122.35,101.32 182.73,152.96 8.9,7.52 17.8,15.04 26.97,22.79 21.56,18.56 42.43,37.92 63.15,57.42 0,8.73 0,17.46 0,26.45 -21.13,18.12 -21.13,18.12 -50.9,38.92 -10.91,7.66 -21.83,15.32 -33.08,23.21 -11.85,8.15 -23.7,16.3 -35.91,24.69 -12.08,8.37 -24.17,16.74 -36.63,25.36 -91.81,63.03 -184.84,122.73 -281.58,177.88 -16.96,9.68 -33.89,19.43 -50.77,29.25 -271.39,157.78 -554.27,291.09 -850.36,395.35 -34.95,12.37 -69.74,25.12 -104.5,38.01 -568.09,208.35 -1168.12,282.31 -1770.13,281.69 -14.41,-0.01 -28.82,-0.02 -43.67,-0.02 -194.38,-0.3 -387.57,-1.22 -580.81,-24.4 -26.48,-3.16 -53,-6.09 -79.53,-8.83 -546.03,-56.69 -1088.31,-214.91 -1585.46,-445.48 -23.58,-10.71 -47.16,-21.43 -70.74,-32.14 -314.49,-144.64 -608.42,-324.47 -881.76,-536.71 96.41,-97.43 198.88,-186.55 305.36,-272.75 41.96,-34.27 83.32,-69.19 124.59,-104.29 52.21,-44.37 104.73,-88.26 157.92,-131.46 64.35,-52.36 127.28,-106.2 190.12,-160.35 58.07,-49.94 117.11,-98.54 176.58,-146.81 43.93,-36.21 87.1,-73.23 130.22,-110.39 66.01,-56.88 132.85,-112.51 200.51,-167.43 43.93,-36.2 87.1,-73.22 130.22,-110.38 66.36,-57.17 133.51,-113.17 201.49,-168.41 70.3,-57.61 139.36,-116.69 208.62,-175.55 80.81,-68.69 161.59,-137.33 243.91,-204.22 56.18,-45.71 111.33,-92.47 166.19,-139.74 66.36,-57.17 133.51,-113.17 201.49,-168.41 70.3,-57.61 139.36,-116.68 208.61,-175.54 80.82,-68.69 161.6,-137.34 243.92,-204.23 65.83,-53.56 130.32,-108.58 194.53,-164.07 14.62,-12.62 29.3,-25.17 44.04,-37.65 18.62,-16.01 36.66,-32.66 54.64,-49.37 31.73,-20.93 31.73,-20.93 64.7,-21.35z"/>
   <path class="fil1" d="M18614.08 4828.03c42.16,20.26 65.13,54.51 92.45,91.16 6.24,8.2 12.49,16.41 18.92,24.86 13.62,17.96 27.17,35.98 40.66,54.04 21.79,29.05 43.92,57.81 66.1,86.57 117.59,154.14 217.85,315.37 312.54,484.41 5.93,10.43 11.86,20.86 17.97,31.6 176.36,311.67 303.48,652.39 380.66,1001.83 6.87,30.78 14.12,61.48 22.11,91.98 66.73,257.96 72.58,518.96 72.87,783.73 0.07,20.23 0.07,20.23 0.14,40.87 1.57,827.64 -258.14,1638.09 -745.11,2309.79 -5.3,7.33 -10.61,14.66 -16.08,22.21 -88.74,121.89 -180.21,242.68 -288.19,348.21 -17.47,-14.78 -34.94,-29.57 -52.41,-44.35 -15.42,-13.05 -30.85,-26.1 -46.29,-39.16 -39.32,-33.26 -78.63,-66.54 -117.88,-99.89 -65.98,-56.03 -132.13,-111.76 -199.31,-166.35 -64.35,-52.35 -127.28,-106.2 -190.12,-160.35 -46.62,-40.1 -93.69,-79.53 -141.44,-118.29 -64.11,-52.04 -126.75,-105.63 -189.29,-159.52 -46.63,-40.1 -93.69,-79.53 -141.44,-118.29 -64.11,-52.04 -126.75,-105.63 -189.29,-159.53 -46.63,-40.09 -93.69,-79.52 -141.44,-118.28 -64.1,-52.04 -126.74,-105.63 -189.29,-159.53 -46.62,-40.1 -93.68,-79.52 -141.44,-118.29 -71.44,-58.03 -141.21,-117.9 -210.99,-177.92 -96.06,-82.62 -192.57,-164.66 -290.89,-244.58 -64.34,-52.36 -127.28,-106.21 -190.11,-160.35 -46.63,-40.1 -93.69,-79.53 -141.44,-118.29 -64.11,-52.04 -126.75,-105.63 -189.29,-159.53 -57.92,-49.8 -116.78,-98.29 -176.12,-146.4 -54.93,-45.32 -108.78,-91.88 -162.52,-138.62 -40.96,-36.2 -40.96,-36.2 -87.23,-64.78 0,-8.73 0,-17.46 0,-26.45 19.95,-18.2 40.82,-35.38 62.01,-52.1 13.32,-10.66 26.64,-21.31 40.36,-32.3 10.63,-8.49 10.63,-8.49 21.48,-17.16 35.83,-28.95 70.91,-58.78 106.01,-88.62 7.16,-6.07 14.32,-12.15 21.7,-18.41 21.99,-18.66 43.97,-37.33 65.94,-56 80.82,-68.69 161.6,-137.34 243.91,-204.23 56.18,-45.71 111.33,-92.46 166.2,-139.73 66.35,-57.17 133.5,-113.17 201.48,-168.41 70.3,-57.61 139.37,-116.69 208.62,-175.55 80.81,-68.69 161.59,-137.33 243.91,-204.22 56.18,-45.71 111.33,-92.47 166.19,-139.74 66.36,-57.17 133.51,-113.17 201.49,-168.41 70.3,-57.61 139.37,-116.69 208.62,-175.55 80.81,-68.68 161.59,-137.33 243.91,-204.22 56.18,-45.71 111.33,-92.47 166.19,-139.73 66.36,-57.18 133.51,-113.18 201.49,-168.42 70.3,-57.6 139.36,-116.68 208.62,-175.54 94.35,-80.2 188.87,-160.05 285.2,-237.87 29.07,-24.04 56.68,-49.09 84.39,-74.67 40.51,-31.42 40.51,-31.42 65.47,-31.63z"/>
   <path class="fil2" d="M9156.72 4180.01c67.61,50.71 132.56,100.93 195.96,156.27 67.12,58.08 135.07,114.91 203.96,170.89 77.76,63.72 154.07,129.18 230.66,194.28 73.48,62.43 147.04,124.68 221.87,185.49 56.8,46.19 112.43,93.57 167.85,141.39 79.21,68.08 79.21,68.08 159.58,134.77 13.37,10.98 13.37,10.98 27.02,22.17 7.73,4.42 15.45,8.84 23.41,13.39 52.8,-17.6 69.47,-51.67 99.22,-95.91 47.66,-68.63 97.03,-135.04 150.49,-199.27 5.97,-7.36 11.95,-14.72 18.11,-22.31 23.22,-27.49 44.69,-50.12 76.2,-67.86 43.62,2.81 62.87,29.66 93.38,59.58 12.99,12.43 26.01,24.83 39.06,37.21 6.59,6.29 13.19,12.58 19.98,19.06 28.79,26.78 59.16,51.38 89.78,76.02 56.84,45.89 112.54,92.86 167.85,140.56 54.56,47.03 109.43,93.5 165.36,138.91 64.12,52.05 126.78,105.64 189.32,159.55 46.33,39.84 93.1,78.98 140.59,117.43 67.53,54.8 133.06,111.7 198.61,168.85 59.65,51.88 120.34,102.26 181.78,152.01 43.81,36.01 86.8,72.89 129.76,109.92 54.56,47.02 109.43,93.5 165.36,138.9 71.49,58.07 141.29,117.97 211.1,178.03 65.46,56.31 131.47,111.98 197.45,167.68 21.78,18.42 43.53,36.88 65.27,55.35 66.23,56.24 132.61,112.18 200.04,166.97 71.68,58.36 141.75,118.48 211.82,178.75 95.77,82.36 191.95,164.19 290.06,243.76 67.66,55.03 133.45,112.03 199.09,169.43 62.5,54.51 126.4,106.66 191.84,157.63 27.13,24.87 40.26,44.24 53.9,78.08 -97.1,83.78 -194.55,166.91 -294.09,247.79 -70.3,57.61 -139.36,116.69 -208.61,175.55 -92.81,78.88 -185.96,157.17 -280.4,234.09 -70.39,57.84 -139.67,117.01 -209.08,176.01 -92.81,78.88 -185.96,157.18 -280.4,234.1 -70.39,57.84 -139.67,117.01 -209.08,176.01 -80.82,68.69 -161.6,137.33 -243.92,204.22 -56.17,45.71 -111.33,92.47 -166.19,139.73 -66.32,57.15 -133.42,113.13 -201.38,168.32 -41.29,33.85 -82.05,68.3 -122.73,102.88 -52.21,44.38 -104.73,88.27 -157.93,131.47 -64.34,52.35 -127.28,106.2 -190.11,160.35 -58.07,49.94 -117.11,98.54 -176.58,146.81 -43.93,36.21 -87.1,73.23 -130.23,110.38 -107.16,92.23 -214.17,184.29 -330.73,264.59 -102.44,-107.62 -190.08,-224.31 -277.81,-343.96 -56.49,31.19 -103.85,70.11 -152.14,112.45 -16.48,14.28 -32.96,28.56 -49.45,42.84 -8.3,7.2 -16.6,14.41 -25.15,21.84 -37.48,32.44 -75.24,64.53 -113.09,96.55 -7.11,6.02 -14.22,12.04 -21.55,18.24 -44.26,37.37 -88.93,74.2 -133.89,110.74 -64.34,52.36 -127.28,106.2 -190.11,160.35 -58.08,49.94 -117.12,98.54 -176.59,146.82 -43.92,36.2 -87.1,73.22 -130.22,110.38 -213.5,183.66 -213.5,183.66 -304.27,238.12 0,-681.04 0,-1362.07 0,-2063.75 -1933.97,0 -3867.94,0 -5860.52,0 0,-860.03 0,-1720.06 0,-2606.15 1933.97,0 3867.94,0 5860.52,0 0,-681.04 0,-1362.07 0,-2063.75zm238.12 515.94c0,589.36 0,1178.72 0,1785.94 -1933.97,0 -3867.94,0 -5860.52,0 0,707.23 0,1414.46 0,2143.13 1929.61,0 3859.22,0 5847.29,0 0,589.36 0,1178.71 0,1785.93 46.41,-23.2 77.96,-44.98 117.41,-77.72 12.79,-10.61 25.58,-21.21 38.76,-32.14 53.29,-44.78 106.04,-90.19 158.77,-135.62 58.08,-49.95 117.13,-98.56 176.61,-146.84 43.93,-36.21 87.1,-73.22 130.23,-110.38 66,-56.89 132.85,-112.52 200.5,-167.44 43.93,-36.2 87.1,-73.22 130.22,-110.38 66.36,-57.17 133.51,-113.17 201.5,-168.41 70.3,-57.61 139.36,-116.69 208.61,-175.55 80.82,-68.68 161.6,-137.33 243.92,-204.22 64.34,-52.36 127.28,-106.2 190.11,-160.35 58.07,-49.94 117.12,-98.54 176.58,-146.82 43.93,-36.2 87.11,-73.22 130.23,-110.38 66.35,-57.17 133.5,-113.17 201.48,-168.41 70.3,-57.61 139.37,-116.69 208.62,-175.55 80.82,-68.68 161.6,-137.33 243.91,-204.22 64.35,-52.36 127.29,-106.2 190.12,-160.35 46.63,-40.1 93.69,-79.53 141.44,-118.29 65.17,-52.91 128.98,-107.28 192.55,-162.08 47.87,-41.27 96.13,-82.01 144.79,-122.35 -94.88,-98.05 -198.52,-186.12 -304.47,-271.87 -44.61,-36.61 -88.39,-74.09 -132.09,-111.78 -54.56,-47.02 -109.43,-93.5 -165.36,-138.9 -64.11,-52.04 -126.75,-105.63 -189.29,-159.53 -46.63,-40.1 -93.69,-79.52 -141.44,-118.29 -55.93,-45.4 -110.8,-91.88 -165.37,-138.9 -66.35,-57.18 -133.5,-113.18 -201.48,-168.42 -77.76,-63.71 -154.07,-129.17 -230.66,-194.27 -73.48,-62.43 -147.04,-124.68 -221.87,-185.5 -64.35,-52.35 -127.29,-106.2 -190.12,-160.34 -46.63,-40.1 -93.69,-79.53 -141.44,-118.3 -55.93,-45.4 -110.8,-91.88 -165.36,-138.9 -66.37,-57.17 -133.51,-113.17 -201.5,-168.42 -77.75,-63.71 -154.06,-129.17 -230.65,-194.27 -73.49,-62.43 -147.04,-124.68 -221.88,-185.5 -64.26,-52.29 -127.12,-106.07 -189.88,-160.14 -60.35,-51.89 -121.52,-102.6 -183.37,-152.7 -26.44,-21.56 -52.37,-43.56 -78.19,-65.84 -28.83,-28.38 -28.83,-28.38 -58.71,-25.63z"/>
   <path class="fil2" d="M9355.16 2857.09c45.33,20.21 80.14,46.88 118.23,78.55 19.26,15.99 19.26,15.99 38.91,32.3 13.78,11.55 27.54,23.11 41.29,34.67 6.86,5.77 13.71,11.53 20.77,17.47 57.9,48.75 115.58,97.77 173.25,146.79 73.49,62.43 147.04,124.68 221.88,185.49 64.33,52.35 127.25,106.19 190.08,160.32 58.43,50.24 117.79,99.23 177.59,147.83 77.76,63.71 154.07,129.17 230.67,194.28 73.48,62.43 147.03,124.68 221.87,185.49 64.34,52.35 127.28,106.2 190.11,160.35 46.63,40.1 93.69,79.52 141.45,118.29 55.93,45.4 110.79,91.88 165.36,138.9 66.36,57.18 133.51,113.18 201.49,168.42 77.75,63.71 154.06,129.17 230.65,194.27 73.49,62.44 147.04,124.69 221.88,185.5 64.34,52.35 127.28,106.2 190.11,160.35 46.63,40.09 93.69,79.52 141.44,118.29 55.93,45.4 110.8,91.88 165.37,138.9 66.35,57.18 133.5,113.18 201.48,168.42 77.76,63.71 154.07,129.17 230.66,194.27 73.49,62.43 147.04,124.68 221.87,185.5 64.35,52.35 127.29,106.2 190.12,160.34 46.63,40.1 93.69,79.53 141.44,118.3 55.93,45.4 110.8,91.88 165.37,138.9 66.35,57.17 133.5,113.17 201.48,168.42 77.76,63.71 154.06,129.17 230.66,194.27 73.48,62.43 147.04,124.68 221.87,185.5 64.21,52.24 127.01,105.96 189.71,160 70.53,60.65 142.26,119.7 214.61,178.17 66.84,-20.21 109.64,-60.94 160.4,-106.66 17.78,-15.73 35.58,-31.44 53.38,-47.13 8.69,-7.68 17.37,-15.35 26.31,-23.26 32.08,-28.02 64.95,-54.97 98.08,-81.75 55.69,-45.1 110.27,-91.3 164.54,-138.08 66,-56.88 132.85,-112.51 200.5,-167.43 43.93,-36.21 87.1,-73.22 130.23,-110.38 66,-56.88 132.85,-112.51 200.5,-167.43 43.93,-36.21 87.1,-73.22 130.23,-110.38 66,-56.89 132.85,-112.52 200.5,-167.44 43.93,-36.2 87.1,-73.22 130.22,-110.38 66.36,-57.17 133.51,-113.17 201.49,-168.41 70.3,-57.61 139.37,-116.69 208.62,-175.55 80.81,-68.68 161.59,-137.33 243.91,-204.22 64.34,-52.36 127.28,-106.2 190.12,-160.35 58.07,-49.94 117.11,-98.54 176.58,-146.81 43.93,-36.21 87.1,-73.23 130.22,-110.39 66.36,-57.17 133.51,-113.17 201.49,-168.41 70.3,-57.61 139.36,-116.68 208.62,-175.54 80.81,-68.69 161.59,-137.34 243.91,-204.23 64.34,-52.35 127.28,-106.2 190.11,-160.35 58.07,-49.94 117.12,-98.54 176.58,-146.81 43.93,-36.21 87.11,-73.23 130.23,-110.39 66.36,-57.17 133.5,-113.17 201.49,-168.41 70.29,-57.61 139.36,-116.68 208.61,-175.54 80.82,-68.69 161.6,-137.34 243.92,-204.23 64.34,-52.35 127.28,-106.2 190.11,-160.35 58.07,-49.94 117.12,-98.54 176.58,-146.81 43.93,-36.21 87.1,-73.23 130.23,-110.38 116.49,-100.3 235.25,-197.41 357.18,-291.05 52.41,20.42 78.58,53.36 113.28,96.74 10.11,12.5 20.22,25 30.64,37.88 25.17,33.5 47.02,67.14 67.75,103.51 -174.09,150.2 -174.09,150.2 -257.97,218.28 -55.93,45.4 -110.8,91.88 -165.36,138.91 -66.01,56.88 -132.85,112.51 -200.51,167.43 -43.93,36.2 -87.1,73.22 -130.22,110.38 -66.01,56.88 -132.85,112.51 -200.51,167.43 -43.93,36.21 -87.1,73.22 -130.22,110.38 -66.01,56.88 -132.85,112.51 -200.51,167.43 -43.92,36.21 -87.1,73.22 -130.22,110.38 -66.01,56.89 -132.85,112.52 -200.5,167.44 -43.93,36.2 -87.11,73.22 -130.23,110.38 -66.36,57.17 -133.5,113.17 -201.49,168.41 -70.29,57.61 -139.36,116.69 -208.61,175.54 -80.82,68.69 -161.6,137.34 -243.92,204.23 -64.34,52.36 -127.28,106.2 -190.11,160.35 -58.07,49.94 -117.12,98.54 -176.58,146.81 -43.93,36.21 -87.11,73.23 -130.23,110.39 -66.35,57.17 -133.5,113.17 -201.48,168.41 -70.3,57.61 -139.37,116.68 -208.62,175.54 -80.82,68.69 -161.6,137.34 -243.91,204.23 -64.35,52.35 -127.29,106.2 -190.12,160.35 -58.07,49.94 -117.11,98.54 -176.58,146.81 -43.93,36.21 -87.1,73.23 -130.22,110.38 -66.36,57.18 -133.51,113.18 -201.49,168.42 -70.3,57.61 -139.37,116.68 -208.62,175.54 -80.81,68.69 -161.59,137.34 -243.91,204.23 -56.18,45.71 -111.33,92.47 -166.19,139.73 -90.54,77.96 -182.24,154.35 -276.06,228.36 -12.04,9.5 -24.08,19 -36.48,28.78 -10.81,8.44 -21.63,16.89 -32.76,25.58 -26.39,19.83 -26.39,19.83 -38.35,48.02 6.98,2.88 13.95,5.76 21.14,8.73 43.72,24.38 79.52,56.78 116.94,89.66 16.6,14.4 33.21,28.8 49.82,43.2 8.38,7.29 16.76,14.58 25.4,22.09 37.53,32.53 75.37,64.69 113.3,96.77 7.11,6.01 14.22,12.03 21.55,18.24 44.26,37.37 88.93,74.2 133.89,110.74 64.34,52.35 127.28,106.2 190.11,160.35 46.63,40.1 93.69,79.53 141.45,118.29 55.93,45.4 110.79,91.88 165.36,138.91 66.36,57.17 133.51,113.17 201.49,168.41 77.75,63.72 154.06,129.17 230.65,194.28 73.49,62.43 147.04,124.68 221.88,185.49 64.34,52.35 127.28,106.2 190.11,160.35 46.63,40.1 93.69,79.52 141.44,118.29 55.93,45.4 110.8,91.88 165.37,138.9 66.35,57.18 133.5,113.18 201.48,168.42 77.76,63.71 154.07,129.17 230.66,194.28 73.49,62.43 147.04,124.68 221.87,185.49 64.35,52.35 127.29,106.2 190.12,160.35 46.63,40.1 93.69,79.52 141.44,118.29 55.93,45.4 110.8,91.88 165.37,138.9 66.35,57.18 133.5,113.18 201.48,168.42 77.76,63.71 154.06,129.17 230.66,194.27 73.48,62.44 147.04,124.69 221.87,185.5 64.35,52.35 127.28,106.2 190.12,160.35 46.62,40.09 93.69,79.52 141.44,118.29 55.93,45.4 110.8,91.88 165.36,138.9 66.36,57.18 133.51,113.18 201.49,168.42 77.75,63.71 154.06,129.17 230.66,194.27 86.99,73.91 174.42,147.12 262.95,219.19 42.29,34.69 83.78,70.22 125.11,106.04 -37.31,58.06 -77.71,111.14 -122.37,163.71 -6.07,7.21 -12.14,14.43 -18.4,21.86 -14.77,17.55 -29.6,35.06 -44.44,52.55 -53.42,-18.02 -86.56,-41.55 -127.33,-80.2 -45.76,-42.39 -92.04,-83.16 -140.56,-122.37 -57.08,-46.19 -113.07,-93.44 -168.67,-141.38 -54.56,-47.03 -109.43,-93.51 -165.36,-138.91 -64.11,-52.04 -126.75,-105.63 -189.3,-159.53 -46.62,-40.09 -93.68,-79.52 -141.43,-118.28 -55.94,-45.41 -110.8,-91.89 -165.37,-138.91 -66.35,-57.17 -133.5,-113.17 -201.48,-168.41 -77.76,-63.72 -154.07,-129.18 -230.66,-194.28 -73.49,-62.43 -147.04,-124.68 -221.88,-185.49 -64.34,-52.36 -127.28,-106.21 -190.11,-160.35 -46.63,-40.1 -93.69,-79.53 -141.44,-118.29 -55.93,-45.41 -110.8,-91.89 -165.37,-138.91 -66.35,-57.17 -133.5,-113.17 -201.48,-168.41 -77.76,-63.72 -154.06,-129.18 -230.66,-194.28 -73.48,-62.43 -147.04,-124.68 -221.87,-185.49 -64.35,-52.36 -127.28,-106.2 -190.12,-160.35 -46.63,-40.1 -93.69,-79.53 -141.44,-118.29 -64.11,-52.04 -126.75,-105.63 -189.29,-159.53 -46.63,-40.09 -93.69,-79.52 -141.44,-118.28 -55.93,-45.41 -110.8,-91.89 -165.36,-138.91 -66.36,-57.17 -133.51,-113.17 -201.49,-168.41 -77.75,-63.72 -154.06,-129.18 -230.66,-194.28 -73.48,-62.43 -147.03,-124.68 -221.87,-185.49 -64.34,-52.36 -127.28,-106.21 -190.11,-160.35 -46.63,-40.1 -93.69,-79.53 -141.45,-118.29 -55.93,-45.41 -110.79,-91.89 -165.36,-138.91 -66.17,-57.01 -133,-112.99 -201.02,-167.79 -28.03,-23.15 -55.34,-46.64 -82.48,-70.8 -7.71,-6.79 -15.43,-13.57 -23.38,-20.56 -15.06,-13.3 -30.02,-26.72 -44.83,-40.29 -37.42,-33.96 -37.42,-33.96 -84.85,-46.07 -39.7,22.17 -72.79,50.95 -106.66,80.93 -15.46,13.39 -30.93,26.78 -46.41,40.15 -7.68,6.67 -15.35,13.34 -23.27,20.21 -30.84,26.53 -62.4,52.14 -94.03,77.72 -56.18,45.71 -111.33,92.46 -166.19,139.73 -66.36,57.17 -133.51,113.17 -201.49,168.41 -70.3,57.61 -139.37,116.69 -208.62,175.55 -80.81,68.69 -161.59,137.33 -243.91,204.22 -64.35,52.36 -127.28,106.21 -190.12,160.35 -58.07,49.94 -117.11,98.55 -176.58,146.82 -43.93,36.2 -87.1,73.22 -130.22,110.38 -66.36,57.17 -133.51,113.17 -201.49,168.41 -70.3,57.61 -139.37,116.69 -208.62,175.55 -80.81,68.69 -161.59,137.33 -243.91,204.22 -64.34,52.36 -127.28,106.21 -190.11,160.35 -58.08,49.94 -117.12,98.54 -176.59,146.82 -43.92,36.2 -87.1,73.22 -130.22,110.38 -66.36,57.17 -133.51,113.17 -201.49,168.41 -70.3,57.61 -139.36,116.69 -208.61,175.55 -80.82,68.69 -161.6,137.33 -243.92,204.22 -64.34,52.36 -127.28,106.2 -190.11,160.35 -58.07,49.94 -117.12,98.54 -176.58,146.82 -43.93,36.2 -87.11,73.22 -130.23,110.38 -66.35,57.17 -133.5,113.17 -201.48,168.41 -70.3,57.61 -139.38,116.69 -208.63,175.55 -80.81,68.68 -161.59,137.33 -243.91,204.22 -64.34,52.36 -127.28,106.2 -190.11,160.35 -58.08,49.94 -117.12,98.54 -176.59,146.82 -51.91,42.78 -102.78,86.73 -153.74,130.65 -70.52,60.65 -142.26,119.69 -214.6,178.16 -40.18,-17.66 -64.72,-35.96 -92.82,-69.55 -6.99,-8.27 -13.98,-16.54 -21.18,-25.07 -7.13,-8.61 -14.26,-17.22 -21.6,-26.09 -11,-13.07 -11,-13.07 -22.22,-26.41 -18.03,-21.45 -35.95,-42.99 -53.85,-64.54 51.51,-110.2 173.02,-184.49 265.77,-259.62 41.33,-33.74 82.15,-68.02 122.84,-102.53 7.17,-6.08 14.34,-12.17 21.73,-18.44 21.98,-18.65 43.95,-37.31 65.91,-55.97 80.81,-68.69 161.59,-137.34 243.91,-204.23 64.34,-52.36 127.28,-106.2 190.12,-160.35 58.07,-49.94 117.11,-98.54 176.58,-146.81 43.93,-36.21 87.1,-73.23 130.22,-110.39 66.36,-57.17 133.51,-113.17 201.49,-168.41 70.3,-57.61 139.37,-116.68 208.62,-175.54 80.82,-68.69 161.6,-137.34 243.91,-204.23 64.35,-52.35 127.29,-106.2 190.12,-160.35 58.07,-49.94 117.11,-98.54 176.58,-146.81 43.93,-36.21 87.1,-73.23 130.22,-110.38 66.36,-57.18 133.51,-113.18 201.49,-168.42 70.3,-57.61 139.37,-116.68 208.62,-175.54 80.81,-68.69 161.59,-137.34 243.91,-204.23 64.34,-52.35 127.28,-106.2 190.12,-160.35 58.07,-49.94 117.11,-98.54 176.58,-146.81 43.93,-36.21 87.1,-73.22 130.22,-110.38 66.36,-57.18 133.51,-113.18 201.49,-168.42 70.3,-57.61 139.36,-116.68 208.62,-175.54 80.81,-68.69 161.59,-137.34 243.91,-204.23 64.34,-52.35 127.28,-106.2 190.11,-160.35 58.07,-49.94 117.12,-98.54 176.58,-146.81 43.93,-36.21 87.11,-73.22 130.23,-110.38 66.32,-57.14 133.42,-113.13 201.38,-168.31 41.29,-33.86 82.05,-68.31 122.73,-102.89 76.39,-64.92 153.67,-128.65 231.51,-191.82 -20.94,-57.65 -65.87,-90.27 -111.62,-128.17 -8.34,-7.02 -16.67,-14.05 -25.27,-21.29 -60.37,-50.72 -121.45,-100.58 -182.67,-150.27 -43.93,-36.21 -87.11,-73.22 -130.23,-110.38 -66.35,-57.18 -133.5,-113.18 -201.48,-168.42 -77.76,-63.71 -154.07,-129.17 -230.66,-194.27 -73.49,-62.44 -147.04,-124.69 -221.87,-185.5 -64.35,-52.35 -127.29,-106.2 -190.12,-160.35 -46.63,-40.09 -93.69,-79.52 -141.44,-118.29 -55.93,-45.4 -110.8,-91.88 -165.36,-138.9 -66.36,-57.18 -133.51,-113.18 -201.49,-168.42 -77.76,-63.71 -154.06,-129.17 -230.66,-194.27 -73.48,-62.43 -147.04,-124.68 -221.87,-185.5 -64.35,-52.35 -127.28,-106.2 -190.12,-160.34 -46.62,-40.1 -93.69,-79.53 -141.44,-118.3 -55.93,-45.4 -110.8,-91.88 -165.36,-138.9 -66.36,-57.17 -133.51,-113.17 -201.49,-168.42 -77.75,-63.71 -154.06,-129.17 -230.66,-194.27 -73.48,-62.43 -147.03,-124.68 -221.87,-185.5 -64.34,-52.35 -127.28,-106.2 -190.11,-160.34 -46.63,-40.1 -93.69,-79.53 -141.45,-118.29 -64.1,-52.05 -126.74,-105.63 -189.29,-159.53 -46.63,-40.1 -93.69,-79.52 -141.44,-118.29 -55.93,-45.4 -110.8,-91.88 -165.36,-138.9 -66.36,-57.18 -133.51,-113.18 -201.49,-168.42 -77.76,-63.71 -154.06,-129.17 -230.66,-194.27 -73.48,-62.44 -147.04,-124.69 -221.87,-185.5 -65.4,-53.22 -129.51,-107.85 -193.37,-162.9 -47.88,-41.27 -96.14,-82.01 -144.8,-122.35 22.82,-55.34 61.36,-96.66 100.04,-141.39 6.71,-7.85 13.42,-15.7 20.34,-23.79 48.36,-56.47 48.36,-56.47 64.83,-72.95z"/>
   <path class="fil3" d="M10717.77 4815.01c50.93,3.46 77.44,32.15 113.27,66.15 46.03,42.67 92.56,83.74 141.39,123.19 57.07,46.2 113.07,93.44 168.67,141.39 54.56,47.03 109.43,93.5 165.36,138.91 64.12,52.05 126.78,105.64 189.32,159.55 46.33,39.84 93.1,78.98 140.59,117.43 67.53,54.8 133.06,111.7 198.61,168.85 59.65,51.88 120.34,102.26 181.78,152.01 43.81,36.01 86.8,72.89 129.76,109.92 54.56,47.02 109.43,93.5 165.36,138.9 71.49,58.07 141.29,117.97 211.1,178.03 65.46,56.31 131.47,111.98 197.45,167.68 21.78,18.42 43.53,36.88 65.27,55.35 66.23,56.24 132.61,112.18 200.04,166.97 71.68,58.36 141.75,118.48 211.82,178.75 95.77,82.36 191.95,164.19 290.06,243.76 67.66,55.03 133.45,112.03 199.09,169.43 62.5,54.51 126.4,106.66 191.84,157.63 27.13,24.87 40.26,44.24 53.9,78.08 -97.1,83.78 -194.55,166.91 -294.09,247.79 -70.3,57.61 -139.36,116.69 -208.62,175.55 -92.8,78.88 -185.95,157.17 -280.39,234.09 -70.39,57.84 -139.67,117.01 -209.08,176.01 -92.81,78.88 -185.96,157.18 -280.4,234.1 -70.39,57.84 -139.67,117.01 -209.08,176.01 -80.82,68.69 -161.6,137.33 -243.92,204.22 -56.17,45.71 -111.33,92.47 -166.19,139.73 -66.32,57.15 -133.42,113.13 -201.38,168.32 -41.29,33.85 -82.05,68.3 -122.73,102.88 -52.21,44.38 -104.73,88.27 -157.93,131.47 -64.34,52.35 -127.28,106.2 -190.11,160.35 -58.07,49.94 -117.11,98.54 -176.58,146.81 -43.93,36.21 -87.1,73.23 -130.23,110.38 -107.16,92.23 -214.17,184.29 -330.73,264.59 -102.44,-107.62 -190.08,-224.31 -277.81,-343.96 24.15,-53.27 58.61,-83.59 103.36,-119.89 15.62,-12.93 31.24,-25.87 46.87,-38.81 8,-6.58 16,-13.16 24.25,-19.94 37.53,-31.02 74.53,-62.65 111.6,-94.21 51.66,-43.82 103.7,-87.09 156.27,-129.81 64.35,-52.36 127.28,-106.21 190.12,-160.35 58.07,-49.94 117.11,-98.55 176.58,-146.82 43.93,-36.2 87.1,-73.22 130.22,-110.38 66.36,-57.17 133.51,-113.17 201.49,-168.41 70.3,-57.61 139.37,-116.69 208.62,-175.55 80.81,-68.69 161.59,-137.33 243.91,-204.22 64.34,-52.36 127.28,-106.21 190.11,-160.35 58.08,-49.94 117.12,-98.55 176.59,-146.82 43.93,-36.2 87.1,-73.22 130.22,-110.38 66.36,-57.17 133.51,-113.17 201.49,-168.41 40.66,-33.32 80.87,-67.14 120.97,-101.13 7.09,-6.01 14.19,-12.02 21.49,-18.22 38.18,-32.38 76.29,-64.84 114.37,-97.33 7.85,-6.68 15.69,-13.36 23.78,-20.24 15.1,-12.86 30.19,-25.74 45.25,-38.64 51.75,-44.02 51.75,-44.02 81.19,-58.74 4.37,-13.09 8.73,-26.19 13.23,-39.69 -6.94,-2.84 -13.88,-5.69 -21.03,-8.62 -44.39,-24.83 -80.71,-57.99 -118.7,-91.43 -16.68,-14.5 -33.37,-28.98 -50.08,-43.46 -8.22,-7.13 -16.44,-14.26 -24.91,-21.6 -31.59,-27.13 -63.81,-53.43 -96.16,-79.63 -64.11,-52.04 -126.75,-105.63 -189.29,-159.52 -46.63,-40.1 -93.69,-79.53 -141.44,-118.29 -64.11,-52.04 -126.75,-105.63 -189.29,-159.53 -46.63,-40.09 -93.69,-79.52 -141.44,-118.28 -55.93,-45.41 -110.8,-91.89 -165.37,-138.91 -66.35,-57.17 -133.5,-113.17 -201.48,-168.41 -77.76,-63.72 -154.07,-129.18 -230.66,-194.28 -73.48,-62.43 -147.04,-124.68 -221.87,-185.49 -64.35,-52.36 -127.29,-106.21 -190.12,-160.35 -46.63,-40.1 -93.69,-79.53 -141.44,-118.29 -55.93,-45.41 -110.8,-91.89 -165.36,-138.91 -66.23,-57.06 -133.26,-112.94 -201.08,-168.1 -42.93,-35.16 -85.54,-70.67 -128,-106.41 -10.63,-8.89 -10.63,-8.89 -21.47,-17.96 -44.21,-37.32 -85.37,-76.26 -125.71,-117.63 248.59,-327.96 248.59,-327.96 317.51,-396.88z"/>
   <path class="fil4" d="M2065.89 6243.76c279.4,0 558.8,0 846.66,0 0,860.03 0,1720.06 0,2606.15 -279.4,0 -558.8,0 -846.66,0 0,-860.03 0,-1720.06 0,-2606.15z"/>
   <path class="fil4" d="M822.34 6243.76c279.4,0 558.8,0 846.67,0 0,860.03 0,1720.06 0,2606.15 -279.4,0 -558.8,0 -846.67,0 0,-860.03 0,-1720.06 0,-2606.15z"/>
   <path class="fil5" d="M2290.78 6468.66c130.97,0 261.94,0 396.88,0 0,711.59 0,1423.2 0,2156.36 -130.97,0 -261.94,0 -396.88,0 0,-711.6 0,-1423.2 0,-2156.36z"/>
   <path class="fil5" d="M1047.24 6468.66c130.97,0 261.94,0 396.87,0 0,711.59 0,1423.2 0,2156.36 -130.96,0 -261.93,0 -396.87,0 0,-711.6 0,-1423.2 0,-2156.36z"/>
  </g>
 </g>
</svg>
